<?xml version="1.0" standalone="no"?>
<!DOCTYPE svg PUBLIC "-//W3C//DTD SVG 20010904//EN"
 "http://www.w3.org/TR/2001/REC-SVG-20010904/DTD/svg10.dtd">
<svg version="1.0" xmlns="http://www.w3.org/2000/svg"
 width="1086.000000pt" height="1228.000000pt" viewBox="0 0 1086.000000 1228.000000"
 preserveAspectRatio="xMidYMid meet">

<g transform="translate(0.000000,1228.000000) scale(0.100000,-0.100000)"
fill="#000000" stroke="none">
<path d="M1400 11906 c0 -2 21 -35 46 -73 331 -491 573 -1678 683 -3348 51
-767 65 -1229 65 -2165 0 -812 -8 -1173 -39 -1810 -104 -2094 -363 -3645 -691
-4142 -27 -40 -53 -79 -57 -86 -7 -10 570 -12 3015 -9 3297 3 3058 -1 3388 57
631 112 1168 419 1482 850 201 276 325 613 369 1000 18 158 15 463 -5 605 -63
443 -238 903 -557 1460 -199 349 -338 657 -400 890 -30 111 -33 132 -33 285
-1 149 1 172 23 234 37 107 111 207 242 325 l116 104 -102 101 c-200 198 -275
392 -262 680 7 154 36 290 96 451 71 187 143 323 362 680 40 66 114 201 164
300 184 363 297 704 352 1062 23 152 23 534 -1 698 -69 483 -249 860 -554
1163 -317 315 -783 539 -1312 631 -329 58 -136 55 -3397 58 -1646 2 -2993 2
-2993 -1z m3520 -596 c488 -18 856 -54 1089 -106 709 -158 1082 -592 1085
-1259 1 -261 -28 -370 -370 -1370 -135 -394 -220 -731 -245 -973 -21 -204 17
-494 93 -711 42 -119 146 -318 226 -431 37 -52 129 -158 204 -234 l137 -139
-94 -89 c-327 -309 -518 -685 -564 -1110 -25 -221 -4 -427 75 -741 45 -177
106 -369 312 -972 111 -327 171 -532 208 -715 23 -111 26 -140 20 -260 -9
-210 -46 -381 -117 -538 -71 -159 -215 -332 -362 -436 -152 -108 -426 -219
-652 -265 -272 -55 -866 -101 -1307 -101 l-178 0 0 2170 0 2170 880 0 c696 0
881 3 884 13 78 282 217 556 394 772 36 44 69 85 75 92 6 9 -12 38 -58 95
-198 246 -318 479 -411 796 -3 9 -188 12 -884 12 l-880 0 0 2170 0 2170 88 0
c48 0 206 -5 352 -10z"/>
</g>
</svg>
